<svg width="194" height="194" viewBox="0 0 194 194" fill="none" xmlns="http://www.w3.org/2000/svg">
<path d="M97 194C150.572 194 194 150.572 194 97L97 0C43.4284 0 0 43.4284 0 97C0 150.572 43.4284 194 97 194Z" fill="#43AA8B"/>
<path d="M194 97C140.428 97 97 53.5716 97 0L194 97Z" fill="black" fill-opacity="0.2"/>
<path d="M71.317 84.04C72.7837 84.04 74.0703 84.3267 75.177 84.9C76.297 85.4733 77.157 86.2933 77.757 87.36C78.3703 88.4133 78.677 89.64 78.677 91.04C78.677 92.44 78.3703 93.6667 77.757 94.72C77.157 95.76 76.297 96.5667 75.177 97.14C74.0703 97.7133 72.7837 98 71.317 98H66.437V84.04H71.317ZM71.217 95.62C72.6837 95.62 73.817 95.22 74.617 94.42C75.417 93.62 75.817 92.4933 75.817 91.04C75.817 89.5867 75.417 88.4533 74.617 87.64C73.817 86.8133 72.6837 86.4 71.217 86.4H69.237V95.62H71.217ZM80.0529 92.42C80.0529 91.3 80.2729 90.3067 80.7129 89.44C81.1663 88.5733 81.7729 87.9067 82.5329 87.44C83.3063 86.9733 84.1663 86.74 85.1129 86.74C85.9396 86.74 86.6596 86.9067 87.2729 87.24C87.8996 87.5733 88.3996 87.9933 88.7729 88.5V86.92H91.5929V98H88.7729V96.38C88.4129 96.9 87.9129 97.3333 87.2729 97.68C86.6463 98.0133 85.9196 98.18 85.0929 98.18C84.1596 98.18 83.3063 97.94 82.5329 97.46C81.7729 96.98 81.1663 96.3067 80.7129 95.44C80.2729 94.56 80.0529 93.5533 80.0529 92.42ZM88.7729 92.46C88.7729 91.78 88.6396 91.2 88.3729 90.72C88.1063 90.2267 87.7463 89.8533 87.2929 89.6C86.8396 89.3333 86.3529 89.2 85.8329 89.2C85.3129 89.2 84.8329 89.3267 84.3929 89.58C83.9529 89.8333 83.5929 90.2067 83.3129 90.7C83.0463 91.18 82.9129 91.7533 82.9129 92.42C82.9129 93.0867 83.0463 93.6733 83.3129 94.18C83.5929 94.6733 83.9529 95.0533 84.3929 95.32C84.8463 95.5867 85.3263 95.72 85.8329 95.72C86.3529 95.72 86.8396 95.5933 87.2929 95.34C87.7463 95.0733 88.1063 94.7 88.3729 94.22C88.6396 93.7267 88.7729 93.14 88.7729 92.46ZM97.5876 89.22V94.58C97.5876 94.9533 97.6743 95.2267 97.8476 95.4C98.0343 95.56 98.341 95.64 98.7676 95.64H100.068V98H98.3076C95.9476 98 94.7676 96.8533 94.7676 94.56V89.22H93.4476V86.92H94.7676V84.18H97.5876V86.92H100.068V89.22H97.5876ZM101.362 92.42C101.362 91.3 101.582 90.3067 102.022 89.44C102.475 88.5733 103.082 87.9067 103.842 87.44C104.615 86.9733 105.475 86.74 106.422 86.74C107.248 86.74 107.968 86.9067 108.582 87.24C109.208 87.5733 109.708 87.9933 110.082 88.5V86.92H112.902V98H110.082V96.38C109.722 96.9 109.222 97.3333 108.582 97.68C107.955 98.0133 107.228 98.18 106.402 98.18C105.468 98.18 104.615 97.94 103.842 97.46C103.082 96.98 102.475 96.3067 102.022 95.44C101.582 94.56 101.362 93.5533 101.362 92.42ZM110.082 92.46C110.082 91.78 109.948 91.2 109.682 90.72C109.415 90.2267 109.055 89.8533 108.602 89.6C108.148 89.3333 107.662 89.2 107.142 89.2C106.622 89.2 106.142 89.3267 105.702 89.58C105.262 89.8333 104.902 90.2067 104.622 90.7C104.355 91.18 104.222 91.7533 104.222 92.42C104.222 93.0867 104.355 93.6733 104.622 94.18C104.902 94.6733 105.262 95.0533 105.702 95.32C106.155 95.5867 106.635 95.72 107.142 95.72C107.662 95.72 108.148 95.5933 108.602 95.34C109.055 95.0733 109.415 94.7 109.682 94.22C109.948 93.7267 110.082 93.14 110.082 92.46ZM56.5302 125.34H50.9702L50.0502 128H47.1102L52.1302 114.02H55.3902L60.4102 128H57.4502L56.5302 125.34ZM55.7702 123.1L53.7502 117.26L51.7302 123.1H55.7702ZM68.4266 116.76C69.7466 116.76 70.8133 117.18 71.6266 118.02C72.4399 118.847 72.8466 120.007 72.8466 121.5V128H70.0466V121.88C70.0466 121 69.8266 120.327 69.3866 119.86C68.9466 119.38 68.3466 119.14 67.5866 119.14C66.8133 119.14 66.1999 119.38 65.7466 119.86C65.3066 120.327 65.0866 121 65.0866 121.88V128H62.2866V116.92H65.0866V118.3C65.4599 117.82 65.9333 117.447 66.5066 117.18C67.0933 116.9 67.7333 116.76 68.4266 116.76ZM74.7893 122.42C74.7893 121.3 75.0093 120.307 75.4493 119.44C75.9026 118.573 76.5093 117.907 77.2693 117.44C78.0426 116.973 78.9026 116.74 79.8493 116.74C80.6759 116.74 81.3959 116.907 82.0093 117.24C82.6359 117.573 83.1359 117.993 83.5093 118.5V116.92H86.3293V128H83.5093V126.38C83.1493 126.9 82.6493 127.333 82.0093 127.68C81.3826 128.013 80.6559 128.18 79.8293 128.18C78.8959 128.18 78.0426 127.94 77.2693 127.46C76.5093 126.98 75.9026 126.307 75.4493 125.44C75.0093 124.56 74.7893 123.553 74.7893 122.42ZM83.5093 122.46C83.5093 121.78 83.3759 121.2 83.1093 120.72C82.8426 120.227 82.4826 119.853 82.0293 119.6C81.5759 119.333 81.0893 119.2 80.5693 119.2C80.0493 119.2 79.5693 119.327 79.1293 119.58C78.6893 119.833 78.3293 120.207 78.0493 120.7C77.7826 121.18 77.6493 121.753 77.6493 122.42C77.6493 123.087 77.7826 123.673 78.0493 124.18C78.3293 124.673 78.6893 125.053 79.1293 125.32C79.5826 125.587 80.0626 125.72 80.5693 125.72C81.0893 125.72 81.5759 125.593 82.0293 125.34C82.4826 125.073 82.8426 124.7 83.1093 124.22C83.3759 123.727 83.5093 123.14 83.5093 122.46ZM91.8639 113.2V128H89.0639V113.2H91.8639ZM105.23 116.92L98.3704 133.24H95.3904L97.7904 127.72L93.3504 116.92H96.4904L99.3504 124.66L102.25 116.92H105.23ZM110.98 128.18C110.073 128.18 109.26 128.02 108.54 127.7C107.82 127.367 107.246 126.92 106.82 126.36C106.406 125.8 106.18 125.18 106.14 124.5H108.96C109.013 124.927 109.22 125.28 109.58 125.56C109.953 125.84 110.413 125.98 110.96 125.98C111.493 125.98 111.906 125.873 112.2 125.66C112.506 125.447 112.66 125.173 112.66 124.84C112.66 124.48 112.473 124.213 112.1 124.04C111.74 123.853 111.16 123.653 110.36 123.44C109.533 123.24 108.853 123.033 108.32 122.82C107.8 122.607 107.346 122.28 106.96 121.84C106.586 121.4 106.4 120.807 106.4 120.06C106.4 119.447 106.573 118.887 106.92 118.38C107.28 117.873 107.786 117.473 108.44 117.18C109.106 116.887 109.886 116.74 110.78 116.74C112.1 116.74 113.153 117.073 113.94 117.74C114.726 118.393 115.16 119.28 115.24 120.4H112.56C112.52 119.96 112.333 119.613 112 119.36C111.68 119.093 111.246 118.96 110.7 118.96C110.193 118.96 109.8 119.053 109.52 119.24C109.253 119.427 109.12 119.687 109.12 120.02C109.12 120.393 109.306 120.68 109.68 120.88C110.053 121.067 110.633 121.26 111.42 121.46C112.22 121.66 112.88 121.867 113.4 122.08C113.92 122.293 114.366 122.627 114.74 123.08C115.126 123.52 115.326 124.107 115.34 124.84C115.34 125.48 115.16 126.053 114.8 126.56C114.453 127.067 113.946 127.467 113.28 127.76C112.626 128.04 111.86 128.18 110.98 128.18ZM119.058 115.6C118.565 115.6 118.151 115.447 117.818 115.14C117.498 114.82 117.338 114.427 117.338 113.96C117.338 113.493 117.498 113.107 117.818 112.8C118.151 112.48 118.565 112.32 119.058 112.32C119.551 112.32 119.958 112.48 120.278 112.8C120.611 113.107 120.778 113.493 120.778 113.96C120.778 114.427 120.611 114.82 120.278 115.14C119.958 115.447 119.551 115.6 119.058 115.6ZM120.438 116.92V128H117.638V116.92H120.438ZM127.445 128.18C126.538 128.18 125.725 128.02 125.005 127.7C124.285 127.367 123.711 126.92 123.285 126.36C122.871 125.8 122.645 125.18 122.605 124.5H125.425C125.478 124.927 125.685 125.28 126.045 125.56C126.418 125.84 126.878 125.98 127.425 125.98C127.958 125.98 128.371 125.873 128.665 125.66C128.971 125.447 129.125 125.173 129.125 124.84C129.125 124.48 128.938 124.213 128.565 124.04C128.205 123.853 127.625 123.653 126.825 123.44C125.998 123.24 125.318 123.033 124.785 122.82C124.265 122.607 123.811 122.28 123.425 121.84C123.051 121.4 122.865 120.807 122.865 120.06C122.865 119.447 123.038 118.887 123.385 118.38C123.745 117.873 124.251 117.473 124.905 117.18C125.571 116.887 126.351 116.74 127.245 116.74C128.565 116.74 129.618 117.073 130.405 117.74C131.191 118.393 131.625 119.28 131.705 120.4H129.025C128.985 119.96 128.798 119.613 128.465 119.36C128.145 119.093 127.711 118.96 127.165 118.96C126.658 118.96 126.265 119.053 125.985 119.24C125.718 119.427 125.585 119.687 125.585 120.02C125.585 120.393 125.771 120.68 126.145 120.88C126.518 121.067 127.098 121.26 127.885 121.46C128.685 121.66 129.345 121.867 129.865 122.08C130.385 122.293 130.831 122.627 131.205 123.08C131.591 123.52 131.791 124.107 131.805 124.84C131.805 125.48 131.625 126.053 131.265 126.56C130.918 127.067 130.411 127.467 129.745 127.76C129.091 128.04 128.325 128.18 127.445 128.18Z" fill="white"/>
</svg>
